#!OML:ASF E:\Steps\Project 1\Capture day 1\Session 2\Subject.ASF
:FULLY-SPECIFIED
:DEGREES
654
root 3.61187 17.9793 7.55946 -156.3 -2.67569 177.428
lowerback -29.6163 -3.00764 -7.7578
upperback -1.25159 -1.97113 -0.273899
thorax 14.3927 -1.65455 3.06109
lowerneck -6.25576 -6.62537 0.920606
upperneck 11.68 -9.2602 4.16086
head 4.68976 -4.12545 0.590267
rclavicle -6.95746e-016 0
rhumerus -35.1353 -19.0694 -77.0058
rradius 27.3909
rwrist 1.66176
rhand -8.779 -52.9638
rfingers 7.12502
rthumb 17.1592 -82.2261
lclavicle -6.95746e-016 0
lhumerus -27.7886 -0.27323 82.0551
lradius 18.6395
lwrist -7.70664
lhand -21.25 -11.4548
lfingers 7.12502
lthumb 5.13295 18.463
rfemur -21.3219 8.19603 18.5301
rtibia 8.43918
rfoot -17.1797 1.45726
rtoes -17.6679
lfemur -20.7679 -9.34794 -22.3215
ltibia 7.8293
lfoot -6.93644 -3.31813
ltoes -33.6379
655
root 3.61312 17.9782 7.56368 -156.275 -2.72195 177.528
lowerback -29.8713 -3.01916 -7.64007
upperback -1.11664 -1.98295 -0.276909
thorax 14.6659 -1.65672 2.98016
lowerneck -6.25583 -6.60282 0.964133
upperneck 11.5997 -9.24465 4.28357
head 4.66899 -4.11038 0.622905
rclavicle 7.8023e-015 3.49861e-014
rhumerus -34.9443 -19.1914 -77.1336
rradius 27.4815
rwrist 1.76078
rhand -8.63548 -53.0967
rfingers 7.12502
rthumb 17.2973 -82.3469
lclavicle 7.8023e-015 3.49861e-014
lhumerus -27.6194 -0.455053 82.0951
lradius 18.682
lwrist -7.64478
lhand -21.5016 -11.9701
lfingers 7.12502
lthumb 4.89007 17.9535
rfemur -21.3741 8.21647 18.6561
rtibia 8.45294
rfoot -17.1575 1.35886
rtoes -18.0687
lfemur -20.8341 -9.3222 -22.1868
ltibia 7.85567
lfoot -6.90686 -3.36119
ltoes -33.4567
656
root 3.61534 17.9795 7.5681 -156.275 -2.72864 177.608
lowerback -29.7898 -2.97981 -7.55586
upperback -1.1686 -1.97426 -0.277119
thorax 14.5659 -1.64548 2.94161
lowerneck -6.31785 -6.63559 1.01705
upperneck 11.6867 -9.29466 4.25385
head 4.70323 -4.12933 0.599023
rclavicle -1.82882e-014 1.19271e-015
rhumerus -35.091 -19.1734 -77.1597
rradius 27.7456
rwrist 1.75691
rhand -8.30341 -53.6874
rfingers 7.12502
rthumb 17.6169 -82.9092
lclavicle -1.82882e-014 1.19271e-015
lhumerus -27.6834 -0.603702 82.1592
lradius 18.7265
lwrist -7.72166
lhand -21.5279 -12.2064
lfingers 7.12502
lthumb 4.86461 17.7177
rfemur -21.4215 8.27791 18.7487
rtibia 8.49876
rfoot -17.1679 1.35843
rtoes -18.0405
lfemur -20.8666 -9.30437 -22.0715
ltibia 7.87251
lfoot -6.93597 -3.31618
ltoes -33.8203
657
root 3.61657 17.9807 7.57142 -156.298 -2.72523 177.665
lowerback -29.7533 -2.95974 -7.50798
upperback -1.16066 -1.96521 -0.265381
thorax 14.5578 -1.63727 2.93391
lowerneck -6.40581 -6.6503 1.07738
upperneck 11.7402 -9.31854 4.17682
head 4.72833 -4.14067 0.560836
rclavicle -4.87022e-015 -8.34896e-015
rhumerus -35.106 -19.1272 -77.2049
rradius 27.9021
rwrist 1.73339
rhand -8.47682 -54.28
rfingers 7.12502
rthumb 17.45 -83.5168
lclavicle -4.87022e-015 -8.34896e-015
lhumerus -27.7113 -0.804525 82.2809
lradius 18.881
lwrist -7.52866
lhand -21.5076 -12.1534
lfingers 7.12502
lthumb 4.8842 17.7703
rfemur -21.4332 8.26335 18.8304
rtibia 8.54033
rfoot -17.1741 1.37697
rtoes -17.9741
lfemur -20.8484 -9.30682 -21.9963
ltibia 7.8436
lfoot -6.94399 -3.24655
ltoes -34.1679
658
root 3.61863 17.982 7.57539 -156.347 -2.76319 177.734
lowerback -29.7772 -2.97865 -7.46327
upperback -1.07752 -1.98914 -0.239905
thorax 14.6697 -1.64484 2.92724
lowerneck -6.51596 -6.64931 1.17922
upperneck 11.7484 -9.32325 4.06298
head 4.73913 -4.14587 0.506207
rclavicle 4.12478e-015 -2.5842e-014
rhumerus -34.9308 -19.1776 -77.2837
rradius 27.8944
rwrist 1.85327
rhand -8.78301 -54.6775
rfingers 7.12502
rthumb 17.1553 -83.9402
lclavicle 4.12478e-015 -2.5842e-014
lhumerus -27.6488 -0.92839 82.3617
lradius 19.0345
lwrist -7.29476
lhand -21.5514 -12.1594
lfingers 7.12502
lthumb 4.84196 17.7653
rfemur -21.366 8.31566 18.929
rtibia 8.48351
rfoot -17.1616 1.37486
rtoes -17.7703
lfemur -20.815 -9.27703 -21.9043
ltibia 7.8143
lfoot -6.87882 -3.30194
ltoes -33.6011
659
root 3.62152 17.984 7.58173 -156.42 -2.77231 177.775
lowerback -29.7126 -2.98693 -7.45506
upperback -1.02228 -1.99779 -0.21165
thorax 14.7079 -1.64637 2.95274
lowerneck -6.64576 -6.7058 1.218
upperneck 11.7036 -9.4077 4.01697
head 4.7444 -4.19096 0.476958
rclavicle -3.13086e-015 -1.55052e-014
rhumerus -34.8484 -18.976 -77.3938
rradius 28.0256
rwrist 1.71038
rhand -8.69698 -55.0082
rfingers 7.12502
rthumb 17.2381 -84.2636
lclavicle -3.13086e-015 -1.55052e-014
lhumerus -27.576 -0.957138 82.4422
lradius 19.1043
lwrist -7.21112
lhand -21.277 -11.7497
lfingers 7.12502
lthumb 5.10692 18.1688
rfemur -21.3076 8.3495 18.98
rtibia 8.43582
rfoot -17.1424 1.47434
rtoes -17.1217
lfemur -20.7524 -9.23163 -21.8402
ltibia 7.76134
lfoot -6.84214 -3.34366
ltoes -33.4636
660
root 3.62334 17.9849 7.58749 -156.455 -2.75399 177.839
lowerback -29.6229 -2.9663 -7.41506
upperback -1.02902 -1.99302 -0.183275
thorax 14.6598 -1.63982 2.96778
lowerneck -6.68644 -6.73503 1.21251
upperneck 11.6242 -9.44959 4.01969
head 4.72781 -4.21567 0.47582
rclavicle -7.30534e-015 -7.15625e-015
rhumerus -34.9579 -18.7183 -77.4487
rradius 28.2649
rwrist 1.41314
rhand -8.49729 -54.8057
rfingers 7.12502
rthumb 17.4303 -84.0443
lclavicle -7.30534e-015 -7.15625e-015
lhumerus -27.5591 -1.08375 82.5687
lradius 19.1561
lwrist -7.04267
lhand -21.0887 -11.456
lfingers 7.12502
lthumb 5.28873 18.458
rfemur -21.3322 8.34381 19.0517
rtibia 8.48463
rfoot -17.1617 1.5831
rtoes -16.3655
lfemur -20.7382 -9.18922 -21.7618
ltibia 7.76546
lfoot -6.90251 -3.29978
ltoes -33.9965
661
root 3.62359 17.9855 7.59014 -156.44 -2.75323 177.869
lowerback -29.6511 -2.97525 -7.3992
upperback -1.00557 -2.00584 -0.165889
thorax 14.7022 -1.64522 2.97208
lowerneck -6.77016 -6.72203 1.261
upperneck 11.6251 -9.43689 3.96496
head 4.73693 -4.21092 0.44947
rclavicle 1.06847e-014 -1.15295e-014
rhumerus -34.9152 -18.689 -77.4467
rradius 28.2424
rwrist 1.36873
rhand -8.51916 -53.8545
rfingers 7.12502
rthumb 17.4092 -83.0948
lclavicle 1.06847e-014 -1.15295e-014
lhumerus -27.4788 -1.20168 82.6784
lradius 19.1933
lwrist -6.92085
lhand -21.1704 -11.8349
lfingers 7.12502
lthumb 5.20982 18.0811
rfemur -21.3496 8.41047 19.0781
rtibia 8.47626
rfoot -17.1458 1.44876
rtoes -16.578
lfemur -20.7728 -9.19688 -21.7233
ltibia 7.81964
lfoot -6.9192 -3.29501
ltoes -33.2631
662
root 3.62401 17.9872 7.59616 -156.45 -2.75085 177.78
lowerback -29.6129 -3.03362 -7.50925
upperback -0.98903 -2.04568 -0.15877
thorax 14.7108 -1.66988 3.02409
lowerneck -6.81735 -6.7089 1.22909
upperneck 11.6561 -9.41989 3.96873
head 4.7558 -4.2024 0.454267
rclavicle -3.37934e-015 -7.95139e-016
rhumerus -34.8575 -18.4864 -77.5089
rradius 28.2659
rwrist 1.23049
rhand -8.69001 -53.2474
rfingers 7.12502
rthumb 17.2448 -82.5022
lclavicle -3.37934e-015 -7.95139e-016
lhumerus -27.4715 -1.22608 82.7808
lradius 19.3126
lwrist -6.88411
lhand -21.1847 -12.1466
lfingers 7.12502
lthumb 5.19599 17.7697
rfemur -21.3561 8.47731 18.9552
rtibia 8.47104
rfoot -17.106 1.24012
rtoes -17.1679
lfemur -20.7749 -9.20291 -21.8217
ltibia 7.80855
lfoot -6.82971 -3.35241
ltoes -32.5367
663
root 3.62526 17.9878 7.60481 -156.467 -2.74285 177.71
lowerback -29.5145 -3.06942 -7.59845
upperback -0.999011 -2.07083 -0.157124
thorax 14.6587 -1.68517 3.06723
lowerneck -6.88317 -6.72938 1.2474
upperneck 11.7374 -9.44736 3.89886
head 4.7879 -4.21605 0.424715
rclavicle 3.8763e-015 3.77691e-014
rhumerus -34.8904 -18.315 -77.5587
rradius 28.3872
rwrist 1.11625
rhand -8.59352 -53.4476
rfingers 7.12502
rthumb 17.3377 -82.6943
lclavicle 3.8763e-015 3.77691e-014
lhumerus -27.5352 -1.23474 82.8698
lradius 19.4731
lwrist -6.83261
lhand -21.1559 -12.0863
lfingers 7.12502
lthumb 5.22378 17.8294
rfemur -21.4076 8.49693 18.8594
rtibia 8.54477
rfoot -17.1256 1.32643
rtoes -16.7699
lfemur -20.795 -9.13992 -21.9089
ltibia 7.80835
lfoot -6.80713 -3.42286
ltoes -33.0322
664
root 3.62606 17.9883 7.60957 -156.494 -2.72206 177.722
lowerback -29.4484 -3.02323 -7.60086
upperback -0.998481 -2.00865 -0.19449
thorax 14.6205 -1.65517 3.0552
lowerneck -6.9836 -6.82169 1.38793
upperneck 11.7832 -9.58894 3.86905
head 4.81295 -4.27713 0.380577
rclavicle 7.70291e-015 -2.06736e-014
rhumerus -34.8967 -18.4807 -77.5337
rradius 28.3584
rwrist 1.19111
rhand -8.38656 -53.7639
rfingers 7.12502
rthumb 17.5369 -82.993
lclavicle 7.70291e-015 -2.06736e-014
lhumerus -27.5571 -1.42581 82.9275
lradius 19.561
lwrist -6.76321
lhand -21.0581 -12.0724
lfingers 7.12502
lthumb 5.31827 17.8408
rfemur -21.424 8.50265 18.8746
rtibia 8.59098
rfoot -17.1728 1.45448
rtoes -16.5321
lfemur -20.7438 -9.05207 -21.9106
ltibia 7.72702
lfoot -6.80291 -3.48342
ltoes -33.2108
665
root 3.62666 17.9885 7.61199 -156.526 -2.67589 177.701
lowerback -29.3992 -2.95898 -7.6489
upperback -1.03008 -1.91002 -0.264015
thorax 14.5472 -1.61216 3.0463
lowerneck -6.89806 -6.89373 1.47096
upperneck 11.8311 -9.70013 4.00236
head 4.81807 -4.3134 0.403587
rclavicle -1.19271e-015 2.78299e-014
rhumerus -35.0369 -18.7266 -77.4802
rradius 28.3574
rwrist 1.29544
rhand -8.36344 -53.8021
rfingers 7.12502
rthumb 17.5591 -83.0291
lclavicle -1.19271e-015 2.78299e-014
lhumerus -27.6209 -1.82533 83.0009
lradius 19.6147
lwrist -6.57856
lhand -20.9644 -12.2612
lfingers 7.12502
lthumb 5.40868 17.6498
rfemur -21.4204 8.51364 18.8415
rtibia 8.6253
rfoot -17.2465 1.43089
rtoes -16.383
lfemur -20.6366 -8.95179 -21.9615
ltibia 7.54763
lfoot -6.74189 -3.5332
ltoes -33.3068
666
root 3.62715 17.9879 7.61566 -156.513 -2.626 177.638
lowerback -29.3635 -2.94311 -7.72972
upperback -1.08777 -1.87186 -0.310164
thorax 14.4577 -1.59958 3.05562
lowerneck -6.74256 -6.86693 1.44213
upperneck 11.8325 -9.66326 4.14582
head 4.80075 -4.28544 0.459686
rclavicle 8.44835e-016 4.37326e-015
rhumerus -35.194 -18.8274 -77.4438
rradius 28.4059
rwrist 1.37667
rhand -8.28292 -54.2809
rfingers 7.12502
rthumb 17.6366 -83.501
lclavicle 8.44835e-016 4.37326e-015
lhumerus -27.6878 -2.00888 83.05
lradius 19.6544
lwrist -6.47876
lhand -20.9706 -12.2867
lfingers 7.12502
lthumb 5.40276 17.6245
rfemur -21.4772 8.52045 18.7424
rtibia 8.65591
rfoot -17.2671 1.43174
rtoes -15.9214
lfemur -20.6285 -8.89376 -22.053
ltibia 7.48131
lfoot -6.77056 -3.56112
ltoes -33.4993
667
root 3.62735 17.9881 7.61879 -156.548 -2.58876 177.631
lowerback -29.299 -2.92966 -7.7522
upperback -1.10049 -1.85261 -0.315665
thorax 14.4114 -1.5909 3.07171
lowerneck -6.76184 -6.83748 1.4723
upperneck 11.8324 -9.61879 4.05119
head 4.79695 -4.26957 0.428525
rclavicle 1.14798e-014 6.36111e-015
rhumerus -35.2305 -18.7542 -77.4505
rradius 28.4491
rwrist 1.2424
rhand -8.17213 -54.8128
rfingers 7.12502
rthumb 17.7432 -84.0233
lclavicle 1.14798e-014 6.36111e-015
lhumerus -27.6919 -1.95014 83.0716
lradius 19.7102
lwrist -6.51544
lhand -20.8571 -12.1163
lfingers 7.12502
lthumb 5.5123 17.792
rfemur -21.4716 8.52636 18.7274
rtibia 8.66549
rfoot -17.2887 1.52448
rtoes -15.7295
lfemur -20.5665 -8.95637 -22.0581
ltibia 7.43937
lfoot -6.79027 -3.48192
ltoes -33.4364
